<svg version="1.1" id="Layer_1" xmlns="http://www.w3.org/2000/svg" xmlns:xlink="http://www.w3.org/1999/xlink" x="0px" y="0px"
	 width="100%" viewBox="0 0 2000 672" enable-background="new 0 0 2000 672" xml:space="preserve">
<path fill="#FFFFFF" opacity="1.000000" stroke="none" 
	d="
M372.000000,1.000000 
	C914.952332,1.000000 1457.904663,1.000000 2000.928467,1.000000 
	C2000.928467,224.932602 2000.928467,448.865234 2000.928467,672.898926 
	C1334.333374,672.898926 667.666687,672.898926 1.000000,672.898926 
	C1.000000,563.887695 1.000000,454.897491 1.343749,345.616333 
	C5.805519,365.350830 15.569330,382.727051 27.547718,398.884186 
	C77.943680,466.861176 128.511551,534.710693 179.024857,602.600647 
	C189.067398,616.097839 198.559814,630.065552 209.421402,642.869995 
	C216.318253,651.000488 224.527740,658.553162 233.482712,664.278137 
	C247.327713,673.129456 260.407715,669.227600 268.715851,655.045227 
	C271.874146,649.653870 274.181335,643.621216 275.999817,637.615417 
	C280.726593,622.004761 281.574951,605.827515 281.653656,589.648682 
	C281.806885,558.159851 281.577698,526.668823 281.797180,495.180786 
	C281.842865,488.632324 281.572754,482.755981 275.674652,478.494171 
	C273.988678,477.275909 272.914948,475.186615 271.622925,473.450256 
	C245.470993,438.303253 219.280624,403.184540 193.235413,367.958557 
	C189.389404,362.756836 185.924423,357.211792 182.834305,351.526031 
	C176.924820,340.652618 176.840927,329.456360 182.722015,318.543060 
	C185.791519,312.847107 189.221954,307.278809 193.063660,302.076996 
	C213.250824,274.742737 233.580536,247.513306 253.948303,220.313034 
	C262.128387,209.388840 270.606873,198.687836 278.763855,187.746796 
	C280.211090,185.805603 281.563232,183.186768 281.575439,180.873550 
	C281.754242,146.885712 281.854675,112.895630 281.634857,78.908272 
	C281.518311,60.883583 280.204254,42.934032 274.027191,25.743248 
	C270.010742,14.565384 263.988068,5.111156 252.000000,1.000000 
	C288.364258,1.000000 324.728485,1.000000 361.401367,1.317229 
	C350.454163,5.738434 345.060699,14.984873 341.257050,25.409916 
	C335.413208,41.426678 333.794922,58.169132 333.696320,75.061165 
	C333.503784,108.050964 333.655945,141.043137 333.367065,174.031723 
	C333.306732,180.920761 333.513184,187.150864 339.751465,191.646484 
	C341.436096,192.860504 342.484924,194.975067 343.777618,196.711975 
	C369.835785,231.724579 395.959686,266.688721 421.867920,301.811951 
	C426.191376,307.673126 429.966248,314.027679 433.293396,320.513947 
	C438.152222,329.986237 438.138153,339.947784 433.262054,349.379425 
	C429.687103,356.294342 425.541565,363.004700 420.931122,369.277618 
	C403.666901,392.766846 386.186249,416.098541 368.629333,439.370544 
	C357.405243,454.248077 345.883972,468.901245 334.576294,483.716309 
	C333.852234,484.664948 333.509857,486.144470 333.514526,487.375000 
	C333.665466,527.194153 333.571106,567.018250 334.246002,606.829224 
	C334.500397,621.837524 337.198730,636.695068 343.814026,650.462585 
	C353.180878,669.956604 368.421661,674.021667 386.259064,661.763733 
	C389.810547,659.323181 393.266479,656.582825 396.214020,653.459351 
	C401.463104,647.897156 406.671234,642.220886 411.236267,636.099976 
	C468.701752,559.048828 526.210205,482.028381 583.261902,404.671295 
	C592.392151,392.291473 600.238159,378.748260 607.084778,364.952271 
	C616.799927,345.376190 616.653687,324.844574 607.287720,305.080933 
	C601.895203,293.701599 595.601135,282.588623 588.416016,272.257660 
	C577.868713,257.092468 565.981384,242.867340 554.978088,228.009766 
	C506.991516,163.214127 459.143097,98.316185 411.183960,33.500202 
	C400.811462,19.481890 389.288727,6.734840 372.000000,1.000000 
M1771.467529,225.956619 
	C1766.381592,234.653549 1761.295654,243.350464 1755.947266,252.496246 
	C1754.502686,250.201828 1753.511230,248.671753 1752.563232,247.115021 
	C1720.509766,194.473190 1688.429565,141.847504 1656.486206,89.138962 
	C1654.536011,85.921051 1652.597778,84.568085 1648.686523,84.584267 
	C1608.023071,84.752472 1567.358765,84.685448 1526.694580,84.697624 
	C1525.098511,84.698097 1523.502441,84.838097 1520.890991,84.960793 
	C1573.999878,161.704483 1626.631226,237.758179 1679.237183,313.775299 
	C1623.207153,397.414825 1567.453735,480.641266 1511.126587,564.724182 
	C1513.915161,564.724182 1515.521729,564.724182 1517.128296,564.724182 
	C1555.292603,564.724182 1593.457153,564.655334 1631.620605,564.828186 
	C1635.528076,564.845886 1637.472778,563.533386 1639.387451,560.271729 
	C1673.791260,501.664246 1708.325684,443.133484 1742.834595,384.587738 
	C1745.279663,380.439545 1747.743530,376.302338 1750.446655,371.741455 
	C1751.673706,373.639191 1752.682007,375.116516 1753.608521,376.643585 
	C1790.674927,437.739136 1827.770630,498.817108 1864.703125,559.993530 
	C1866.893433,563.621643 1869.186279,564.843079 1873.369263,564.825562 
	C1913.699463,564.656189 1954.030518,564.724060 1994.361328,564.724060 
	C1996.120361,564.724060 1997.879395,564.724060 2000.501465,564.724060 
	C1999.064209,562.497314 1998.146729,560.996582 1997.153198,559.548035 
	C1941.552124,478.489410 1885.973755,397.415161 1830.243774,316.445129 
	C1827.732422,312.796173 1827.857544,310.515137 1830.304565,306.947083 
	C1879.868042,234.678513 1929.288574,162.311859 1978.727661,89.957939 
	C1979.713379,88.515396 1980.579102,86.990974 1981.823608,84.984306 
	C1980.031250,84.852165 1978.925659,84.699738 1977.819946,84.699394 
	C1937.822510,84.686890 1897.824829,84.735130 1857.827759,84.601814 
	C1854.548096,84.590889 1853.202637,86.076874 1851.756714,88.557281 
	C1825.166016,134.174744 1798.503540,179.750412 1771.467529,225.956619 
M1133.096680,191.500000 
	C1133.096680,315.758972 1133.096680,440.017914 1133.096680,564.459656 
	C1168.637451,564.459656 1203.550415,564.459656 1238.974121,564.459656 
	C1238.974121,502.126495 1238.974121,440.055634 1238.974121,377.532013 
	C1241.275269,377.532013 1243.069336,377.532013 1244.863281,377.532013 
	C1270.028320,377.532013 1295.194702,377.690460 1320.358154,377.488892 
	C1347.276978,377.273285 1373.956421,374.691650 1399.869751,366.978271 
	C1444.298462,353.753571 1474.740234,325.998596 1487.566040,280.706085 
	C1493.995361,258.001740 1494.931152,234.695999 1492.897217,211.295792 
	C1488.218018,157.463745 1461.558105,119.646965 1410.757812,99.803261 
	C1384.505371,89.548538 1356.882446,85.514328 1329.001709,85.190765 
	C1264.682007,84.444328 1200.349731,84.787506 1136.022461,84.701576 
	C1135.221802,84.700508 1134.420898,84.870239 1133.096680,85.019073 
	C1133.096680,120.271027 1133.096680,155.385513 1133.096680,191.500000 
M735.238586,334.499939 
	C735.238586,411.095673 735.238586,487.691406 735.238586,564.434937 
	C770.819092,564.434937 805.729797,564.434937 841.171997,564.434937 
	C841.171997,502.072021 841.171997,439.996552 841.171997,377.465271 
	C907.977478,377.465271 974.252502,377.465271 1040.740112,377.465271 
	C1040.740112,344.778259 1040.740112,312.550964 1040.740112,279.709381 
	C974.090271,279.709381 907.716858,279.709381 841.341187,279.709381 
	C841.341187,246.990067 841.341187,214.886047 841.341187,182.238159 
	C913.322144,182.238159 985.048767,182.238159 1056.909180,182.238159 
	C1056.909180,149.470245 1056.909180,117.248398 1056.909180,84.919312 
	C949.661926,84.919312 842.728943,84.919312 735.238647,84.919312 
	C735.238647,167.933334 735.238647,250.716644 735.238586,334.499939 
z"/>
<path fill="#252C58" opacity="1.000000" stroke="none" 
	d="
M371.545898,1.000000 
	C389.288727,6.734840 400.811462,19.481890 411.183960,33.500202 
	C459.143097,98.316185 506.991516,163.214127 554.978088,228.009766 
	C565.981384,242.867340 577.868713,257.092468 588.416016,272.257660 
	C595.601135,282.588623 601.895203,293.701599 607.287720,305.080933 
	C616.653687,324.844574 616.799927,345.376190 607.084778,364.952271 
	C600.238159,378.748260 592.392151,392.291473 583.261902,404.671295 
	C526.210205,482.028381 468.701752,559.048828 411.236267,636.099976 
	C406.671234,642.220886 401.463104,647.897156 396.214020,653.459351 
	C393.266479,656.582825 389.810547,659.323181 386.259064,661.763733 
	C368.421661,674.021667 353.180878,669.956604 343.814026,650.462585 
	C337.198730,636.695068 334.500397,621.837524 334.246002,606.829224 
	C333.571106,567.018250 333.665466,527.194153 333.514526,487.375000 
	C333.509857,486.144470 333.852234,484.664948 334.576294,483.716309 
	C345.883972,468.901245 357.405243,454.248077 368.629333,439.370544 
	C386.186249,416.098541 403.666901,392.766846 420.931122,369.277618 
	C425.541565,363.004700 429.687103,356.294342 433.262054,349.379425 
	C438.138153,339.947784 438.152222,329.986237 433.293396,320.513947 
	C429.966248,314.027679 426.191376,307.673126 421.867920,301.811951 
	C395.959686,266.688721 369.835785,231.724579 343.777618,196.711975 
	C342.484924,194.975067 341.436096,192.860504 339.751465,191.646484 
	C333.513184,187.150864 333.306732,180.920761 333.367065,174.031723 
	C333.655945,141.043137 333.503784,108.050964 333.696320,75.061165 
	C333.794922,58.169132 335.413208,41.426678 341.257050,25.409916 
	C345.060699,14.984873 350.454163,5.738434 361.855011,1.317229 
	C365.030609,1.000000 368.061188,1.000000 371.545898,1.000000 
z"/>
<path fill="#0386C8" opacity="1.000000" stroke="none" 
	d="
M251.550018,1.000000 
	C263.988068,5.111156 270.010742,14.565384 274.027191,25.743248 
	C280.204254,42.934032 281.518311,60.883583 281.634857,78.908272 
	C281.854675,112.895630 281.754242,146.885712 281.575439,180.873550 
	C281.563232,183.186768 280.211090,185.805603 278.763855,187.746796 
	C270.606873,198.687836 262.128387,209.388840 253.948303,220.313034 
	C233.580536,247.513306 213.250824,274.742737 193.063660,302.076996 
	C189.221954,307.278809 185.791519,312.847107 182.722015,318.543060 
	C176.840927,329.456360 176.924820,340.652618 182.834305,351.526031 
	C185.924423,357.211792 189.389404,362.756836 193.235413,367.958557 
	C219.280624,403.184540 245.470993,438.303253 271.622925,473.450256 
	C272.914948,475.186615 273.988678,477.275909 275.674652,478.494171 
	C281.572754,482.755981 281.842865,488.632324 281.797180,495.180786 
	C281.577698,526.668823 281.806885,558.159851 281.653656,589.648682 
	C281.574951,605.827515 280.726593,622.004761 275.999817,637.615417 
	C274.181335,643.621216 271.874146,649.653870 268.715851,655.045227 
	C260.407715,669.227600 247.327713,673.129456 233.482712,664.278137 
	C224.527740,658.553162 216.318253,651.000488 209.421402,642.869995 
	C198.559814,630.065552 189.067398,616.097839 179.024857,602.600647 
	C128.511551,534.710693 77.943680,466.861176 27.547718,398.884186 
	C15.569330,382.727051 5.805519,365.350830 1.343749,345.162720 
	C1.000000,338.645599 1.000000,332.291199 1.340694,325.293427 
	C5.100115,307.706085 12.449797,292.426300 22.372786,278.493225 
	C32.993980,263.579773 44.428902,249.248779 55.322208,234.525620 
	C104.553848,167.985077 153.706848,101.386337 202.918854,34.831253 
	C213.591537,20.397369 225.245834,7.070663 243.000000,1.000000 
	C245.700012,1.000000 248.400024,1.000000 251.550018,1.000000 
z"/>
<path fill="#FEFFFF" opacity="1.000000" stroke="none" 
	d="
M242.531342,1.000000 
	C225.245834,7.070663 213.591537,20.397369 202.918854,34.831253 
	C153.706848,101.386337 104.553848,167.985077 55.322208,234.525620 
	C44.428902,249.248779 32.993980,263.579773 22.372786,278.493225 
	C12.449797,292.426300 5.100115,307.706085 1.340694,324.825012 
	C1.000000,217.083527 1.000000,109.167061 1.000000,1.000000 
	C81.354057,1.000000 161.708374,1.000000 242.531342,1.000000 
z"/>
<path fill="#252C58" opacity="1.000000" stroke="none" 
	d="
M1771.661865,225.645752 
	C1798.503540,179.750412 1825.166016,134.174744 1851.756714,88.557281 
	C1853.202637,86.076874 1854.548096,84.590889 1857.827759,84.601814 
	C1897.824829,84.735130 1937.822510,84.686890 1977.819946,84.699394 
	C1978.925659,84.699738 1980.031250,84.852165 1981.823608,84.984306 
	C1980.579102,86.990974 1979.713379,88.515396 1978.727661,89.957939 
	C1929.288574,162.311859 1879.868042,234.678513 1830.304565,306.947083 
	C1827.857544,310.515137 1827.732422,312.796173 1830.243774,316.445129 
	C1885.973755,397.415161 1941.552124,478.489410 1997.153198,559.548035 
	C1998.146729,560.996582 1999.064209,562.497314 2000.501465,564.724060 
	C1997.879395,564.724060 1996.120361,564.724060 1994.361328,564.724060 
	C1954.030518,564.724060 1913.699463,564.656189 1873.369263,564.825562 
	C1869.186279,564.843079 1866.893433,563.621643 1864.703125,559.993530 
	C1827.770630,498.817108 1790.674927,437.739136 1753.608521,376.643585 
	C1752.682007,375.116516 1751.673706,373.639191 1750.446655,371.741455 
	C1747.743530,376.302338 1745.279663,380.439545 1742.834595,384.587738 
	C1708.325684,443.133484 1673.791260,501.664246 1639.387451,560.271729 
	C1637.472778,563.533386 1635.528076,564.845886 1631.620605,564.828186 
	C1593.457153,564.655334 1555.292603,564.724182 1517.128296,564.724182 
	C1515.521729,564.724182 1513.915161,564.724182 1511.126587,564.724182 
	C1567.453735,480.641266 1623.207153,397.414825 1679.237183,313.775299 
	C1626.631226,237.758179 1573.999878,161.704483 1520.890991,84.960793 
	C1523.502441,84.838097 1525.098511,84.698097 1526.694580,84.697624 
	C1567.358765,84.685448 1608.023071,84.752472 1648.686523,84.584267 
	C1652.597778,84.568085 1654.536011,85.921051 1656.486206,89.138962 
	C1688.429565,141.847504 1720.509766,194.473190 1752.563232,247.115021 
	C1753.511230,248.671753 1754.502686,250.201828 1755.947266,252.496246 
	C1761.295654,243.350464 1766.381592,234.653549 1771.661865,225.645752 
z"/>
<path fill="#252C58" opacity="1.000000" stroke="none" 
	d="
M1133.096680,191.000000 
	C1133.096680,155.385513 1133.096680,120.271027 1133.096680,85.019073 
	C1134.420898,84.870239 1135.221802,84.700508 1136.022461,84.701576 
	C1200.349731,84.787506 1264.682007,84.444328 1329.001709,85.190765 
	C1356.882446,85.514328 1384.505371,89.548538 1410.757812,99.803261 
	C1461.558105,119.646965 1488.218018,157.463745 1492.897217,211.295792 
	C1494.931152,234.695999 1493.995361,258.001740 1487.566040,280.706085 
	C1474.740234,325.998596 1444.298462,353.753571 1399.869751,366.978271 
	C1373.956421,374.691650 1347.276978,377.273285 1320.358154,377.488892 
	C1295.194702,377.690460 1270.028320,377.532013 1244.863281,377.532013 
	C1243.069336,377.532013 1241.275269,377.532013 1238.974121,377.532013 
	C1238.974121,440.055634 1238.974121,502.126495 1238.974121,564.459656 
	C1203.550415,564.459656 1168.637451,564.459656 1133.096680,564.459656 
	C1133.096680,440.017914 1133.096680,315.758972 1133.096680,191.000000 
M1254.503906,287.944611 
	C1273.667603,287.944153 1292.832397,288.074066 1311.994507,287.898956 
	C1325.567383,287.774933 1338.946777,286.045746 1351.560425,280.663300 
	C1373.253540,271.406342 1383.674805,254.646576 1383.840576,231.282776 
	C1384.004639,208.151520 1373.472534,192.278839 1351.955933,182.895966 
	C1340.323364,177.823227 1328.041260,175.478470 1315.509033,175.157776 
	C1290.697266,174.522842 1265.870728,174.461823 1241.050049,174.190521 
	C1240.439453,174.183838 1239.825439,174.492554 1239.282837,174.635757 
	C1239.282837,212.427612 1239.282837,250.001602 1239.282837,287.944580 
	C1244.233521,287.944580 1248.869751,287.944580 1254.503906,287.944611 
z"/>
<path fill="#252C58" opacity="1.000000" stroke="none" 
	d="
M735.238647,333.999939 
	C735.238647,250.716644 735.238647,167.933334 735.238647,84.919312 
	C842.728943,84.919312 949.661926,84.919312 1056.909180,84.919312 
	C1056.909180,117.248398 1056.909180,149.470245 1056.909180,182.238159 
	C985.048767,182.238159 913.322144,182.238159 841.341187,182.238159 
	C841.341187,214.886047 841.341187,246.990067 841.341187,279.709381 
	C907.716858,279.709381 974.090271,279.709381 1040.740112,279.709381 
	C1040.740112,312.550964 1040.740112,344.778259 1040.740112,377.465271 
	C974.252502,377.465271 907.977478,377.465271 841.171997,377.465271 
	C841.171997,439.996552 841.171997,502.072021 841.171997,564.434937 
	C805.729797,564.434937 770.819092,564.434937 735.238586,564.434937 
	C735.238586,487.691406 735.238586,411.095673 735.238647,333.999939 
z"/>
<path fill="#FEFEFE" opacity="1.000000" stroke="none" 
	d="
M1254.004883,287.944580 
	C1248.869751,287.944580 1244.233521,287.944580 1239.282837,287.944580 
	C1239.282837,250.001602 1239.282837,212.427612 1239.282837,174.635757 
	C1239.825439,174.492554 1240.439453,174.183838 1241.050049,174.190521 
	C1265.870728,174.461823 1290.697266,174.522842 1315.509033,175.157776 
	C1328.041260,175.478470 1340.323364,177.823227 1351.955933,182.895966 
	C1373.472534,192.278839 1384.004639,208.151520 1383.840576,231.282776 
	C1383.674805,254.646576 1373.253540,271.406342 1351.560425,280.663300 
	C1338.946777,286.045746 1325.567383,287.774933 1311.994507,287.898956 
	C1292.832397,288.074066 1273.667603,287.944153 1254.004883,287.944580 
z"/>
</svg>